<mxfile host="app.diagrams.net" agent="Mozilla/5.0 (Windows NT 10.0; Win64; x64) AppleWebKit/537.36 (KHTML, like Gecko) Chrome/126.0.0.0 Safari/537.36 Edg/126.0.0.0" version="24.7.5">
  <diagram name="第 1 页" id="WQeAwxKFcT7OB5Cg3qxY">
    <mxGraphModel dx="1301" dy="724" grid="1" gridSize="10" guides="1" tooltips="1" connect="1" arrows="1" fold="1" page="1" pageScale="1" pageWidth="827" pageHeight="1169" math="0" shadow="0">
      <root>
        <mxCell id="0" />
        <mxCell id="1" parent="0" />
        <mxCell id="hIqT9i04S8oYivavArrL-4" value="" style="rounded=0;whiteSpace=wrap;html=1;" parent="1" vertex="1">
          <mxGeometry x="240" y="106" width="1920" height="994" as="geometry" />
        </mxCell>
        <mxCell id="hIqT9i04S8oYivavArrL-15" value="" style="rounded=0;whiteSpace=wrap;html=1;fillColor=#f8cecc;strokeColor=#b85450;" parent="1" vertex="1">
          <mxGeometry x="1580" y="600" width="536" height="450" as="geometry" />
        </mxCell>
        <mxCell id="hIqT9i04S8oYivavArrL-16" value="3rd Pipeline" style="text;html=1;align=center;verticalAlign=middle;whiteSpace=wrap;rounded=0;" parent="1" vertex="1">
          <mxGeometry x="1580" y="600" width="72.82608695652173" height="32.142857142857146" as="geometry" />
        </mxCell>
        <mxCell id="at4TgTFT5-a5In5rYcma-98" value="&lt;font style=&quot;font-size: 18px;&quot;&gt;&lt;b&gt;inst_execute&lt;/b&gt;&lt;/font&gt;" style="rounded=0;whiteSpace=wrap;html=1;fillColor=#f5f5f5;fontColor=#333333;strokeColor=#666666;" vertex="1" parent="1">
          <mxGeometry x="1670" y="720" width="180" height="210" as="geometry" />
        </mxCell>
        <mxCell id="hIqT9i04S8oYivavArrL-14" value="" style="rounded=0;whiteSpace=wrap;html=1;fillColor=#ffe6cc;strokeColor=#d79b00;" parent="1" vertex="1">
          <mxGeometry x="850" y="600" width="640" height="450.82" as="geometry" />
        </mxCell>
        <mxCell id="hIqT9i04S8oYivavArrL-5" value="&lt;font style=&quot;font-size: 26px;&quot;&gt;&lt;b&gt;RiscV Core&lt;/b&gt;&lt;/font&gt;" style="text;html=1;align=center;verticalAlign=middle;whiteSpace=wrap;rounded=0;" parent="1" vertex="1">
          <mxGeometry x="255" y="127" width="160" height="30" as="geometry" />
        </mxCell>
        <mxCell id="hIqT9i04S8oYivavArrL-39" value="&lt;font style=&quot;font-size: 18px;&quot;&gt;&lt;b&gt;RiscV Internal Bus&lt;/b&gt;&lt;/font&gt;" style="rounded=0;whiteSpace=wrap;html=1;" parent="1" vertex="1">
          <mxGeometry x="350" y="1139" width="1766" height="60" as="geometry" />
        </mxCell>
        <mxCell id="at4TgTFT5-a5In5rYcma-33" style="edgeStyle=orthogonalEdgeStyle;rounded=0;orthogonalLoop=1;jettySize=auto;html=1;exitX=0.113;exitY=1.012;exitDx=0;exitDy=0;entryX=0.604;entryY=0.004;entryDx=0;entryDy=0;fillColor=#dae8fc;strokeColor=#6c8ebf;fontColor=#6C8EBF;startArrow=classic;startFill=1;endArrow=none;endFill=0;entryPerimeter=0;exitPerimeter=0;" edge="1" parent="1" source="at4TgTFT5-a5In5rYcma-201" target="at4TgTFT5-a5In5rYcma-41">
          <mxGeometry relative="1" as="geometry">
            <mxPoint x="1029" y="504.9999999999999" as="sourcePoint" />
            <mxPoint x="1029" y="585.0000000000001" as="targetPoint" />
          </mxGeometry>
        </mxCell>
        <mxCell id="at4TgTFT5-a5In5rYcma-34" value="&lt;font color=&quot;#6c8ebf&quot;&gt;reg1_raddr&lt;/font&gt;" style="edgeLabel;html=1;align=center;verticalAlign=middle;resizable=0;points=[];horizontal=0;" vertex="1" connectable="0" parent="at4TgTFT5-a5In5rYcma-33">
          <mxGeometry x="-0.0605" y="1" relative="1" as="geometry">
            <mxPoint x="-10" y="-24" as="offset" />
          </mxGeometry>
        </mxCell>
        <mxCell id="at4TgTFT5-a5In5rYcma-35" style="edgeStyle=orthogonalEdgeStyle;rounded=0;orthogonalLoop=1;jettySize=auto;html=1;exitX=0.25;exitY=0;exitDx=0;exitDy=0;entryX=0.75;entryY=1;entryDx=0;entryDy=0;" edge="1" parent="1" source="at4TgTFT5-a5In5rYcma-41" target="at4TgTFT5-a5In5rYcma-50">
          <mxGeometry relative="1" as="geometry">
            <mxPoint x="960" y="730" as="sourcePoint" />
            <mxPoint x="960" y="490" as="targetPoint" />
            <Array as="points">
              <mxPoint x="980" y="720" />
            </Array>
          </mxGeometry>
        </mxCell>
        <mxCell id="at4TgTFT5-a5In5rYcma-36" value="csr_raddr" style="edgeLabel;html=1;align=center;verticalAlign=middle;resizable=0;points=[];labelBackgroundColor=none;horizontal=0;" vertex="1" connectable="0" parent="at4TgTFT5-a5In5rYcma-35">
          <mxGeometry x="-0.0778" y="-1" relative="1" as="geometry">
            <mxPoint x="-11" y="-48" as="offset" />
          </mxGeometry>
        </mxCell>
        <mxCell id="at4TgTFT5-a5In5rYcma-37" style="edgeStyle=orthogonalEdgeStyle;rounded=0;orthogonalLoop=1;jettySize=auto;html=1;exitX=1;exitY=0.5;exitDx=0;exitDy=0;entryX=0;entryY=0.5;entryDx=0;entryDy=0;fillColor=#dae8fc;strokeColor=#6c8ebf;" edge="1" parent="1">
          <mxGeometry relative="1" as="geometry">
            <mxPoint x="1100" y="732" as="sourcePoint" />
            <mxPoint x="1230" y="732" as="targetPoint" />
          </mxGeometry>
        </mxCell>
        <mxCell id="at4TgTFT5-a5In5rYcma-38" value="&lt;font color=&quot;#6c8ebf&quot;&gt;op1&lt;/font&gt;" style="edgeLabel;html=1;align=center;verticalAlign=middle;resizable=0;points=[];labelBackgroundColor=none;" vertex="1" connectable="0" parent="at4TgTFT5-a5In5rYcma-37">
          <mxGeometry x="0.2337" y="2" relative="1" as="geometry">
            <mxPoint x="-19" y="-7" as="offset" />
          </mxGeometry>
        </mxCell>
        <mxCell id="at4TgTFT5-a5In5rYcma-39" style="edgeStyle=orthogonalEdgeStyle;rounded=0;orthogonalLoop=1;jettySize=auto;html=1;entryX=0;entryY=0.5;entryDx=0;entryDy=0;" edge="1" parent="1">
          <mxGeometry relative="1" as="geometry">
            <mxPoint x="1100" y="770" as="sourcePoint" />
            <mxPoint x="1230" y="770" as="targetPoint" />
          </mxGeometry>
        </mxCell>
        <mxCell id="at4TgTFT5-a5In5rYcma-40" value="offset" style="edgeLabel;html=1;align=center;verticalAlign=middle;resizable=0;points=[];labelBackgroundColor=none;" vertex="1" connectable="0" parent="at4TgTFT5-a5In5rYcma-39">
          <mxGeometry x="-0.0157" y="-2" relative="1" as="geometry">
            <mxPoint x="-3" y="-10" as="offset" />
          </mxGeometry>
        </mxCell>
        <mxCell id="at4TgTFT5-a5In5rYcma-41" value="&lt;font style=&quot;font-size: 18px;&quot;&gt;&lt;b&gt;inst_decode&lt;/b&gt;&lt;/font&gt;" style="rounded=0;whiteSpace=wrap;html=1;fillColor=#f5f5f5;fontColor=#333333;strokeColor=#666666;glass=0;" vertex="1" parent="1">
          <mxGeometry x="920" y="720" width="180" height="210" as="geometry" />
        </mxCell>
        <mxCell id="at4TgTFT5-a5In5rYcma-44" value="&lt;font style=&quot;font-size: 18px;&quot;&gt;&lt;b&gt;id_to_ex&lt;/b&gt;&lt;/font&gt;" style="rounded=0;whiteSpace=wrap;html=1;fillColor=#f5f5f5;fontColor=#333333;strokeColor=#666666;" vertex="1" parent="1">
          <mxGeometry x="1230" y="720" width="180" height="210" as="geometry" />
        </mxCell>
        <mxCell id="at4TgTFT5-a5In5rYcma-45" style="edgeStyle=orthogonalEdgeStyle;rounded=0;orthogonalLoop=1;jettySize=auto;html=1;exitX=0.712;exitY=-0.004;exitDx=0;exitDy=0;entryX=0.357;entryY=1.004;entryDx=0;entryDy=0;fillColor=#dae8fc;strokeColor=#6c8ebf;startArrow=classic;startFill=1;endArrow=none;endFill=0;entryPerimeter=0;exitPerimeter=0;" edge="1" parent="1" source="at4TgTFT5-a5In5rYcma-41" target="at4TgTFT5-a5In5rYcma-201">
          <mxGeometry relative="1" as="geometry">
            <mxPoint x="1069" y="585.0000000000001" as="sourcePoint" />
            <mxPoint x="1069" y="504.9999999999999" as="targetPoint" />
          </mxGeometry>
        </mxCell>
        <mxCell id="at4TgTFT5-a5In5rYcma-46" value="&lt;font color=&quot;#6c8ebf&quot;&gt;reg1_rdata&lt;/font&gt;" style="edgeLabel;html=1;align=center;verticalAlign=middle;resizable=0;points=[];horizontal=0;" vertex="1" connectable="0" parent="at4TgTFT5-a5In5rYcma-45">
          <mxGeometry x="-0.0685" y="1" relative="1" as="geometry">
            <mxPoint x="-7" y="-38" as="offset" />
          </mxGeometry>
        </mxCell>
        <mxCell id="at4TgTFT5-a5In5rYcma-48" style="edgeStyle=orthogonalEdgeStyle;rounded=0;orthogonalLoop=1;jettySize=auto;html=1;exitX=0.25;exitY=1;exitDx=0;exitDy=0;" edge="1" parent="1">
          <mxGeometry relative="1" as="geometry">
            <mxPoint x="930" y="480" as="sourcePoint" />
            <mxPoint x="940" y="720" as="targetPoint" />
            <Array as="points">
              <mxPoint x="940" y="480" />
              <mxPoint x="940" y="720" />
            </Array>
          </mxGeometry>
        </mxCell>
        <mxCell id="at4TgTFT5-a5In5rYcma-49" value="csr_rdata" style="edgeLabel;html=1;align=center;verticalAlign=middle;resizable=0;points=[];horizontal=0;" vertex="1" connectable="0" parent="at4TgTFT5-a5In5rYcma-48">
          <mxGeometry x="-0.1861" y="2" relative="1" as="geometry">
            <mxPoint x="-11" y="-2" as="offset" />
          </mxGeometry>
        </mxCell>
        <mxCell id="at4TgTFT5-a5In5rYcma-50" value="&lt;font style=&quot;font-size: 18px;&quot;&gt;&lt;b&gt;csr_reg&lt;/b&gt;&lt;/font&gt;" style="rounded=0;whiteSpace=wrap;html=1;fillColor=#f5f5f5;fontColor=#333333;strokeColor=#666666;" vertex="1" parent="1">
          <mxGeometry x="920" y="410" width="80" height="70" as="geometry" />
        </mxCell>
        <mxCell id="at4TgTFT5-a5In5rYcma-55" style="edgeStyle=orthogonalEdgeStyle;rounded=0;orthogonalLoop=1;jettySize=auto;html=1;exitX=1;exitY=0.5;exitDx=0;exitDy=0;entryX=0;entryY=0.5;entryDx=0;entryDy=0;fillColor=#d5e8d4;strokeColor=#82b366;" edge="1" parent="1">
          <mxGeometry relative="1" as="geometry">
            <mxPoint x="1100" y="750" as="sourcePoint" />
            <mxPoint x="1230" y="750" as="targetPoint" />
          </mxGeometry>
        </mxCell>
        <mxCell id="at4TgTFT5-a5In5rYcma-56" value="&lt;font color=&quot;#82b366&quot;&gt;op2&lt;/font&gt;" style="edgeLabel;html=1;align=center;verticalAlign=middle;resizable=0;points=[];labelBackgroundColor=none;" vertex="1" connectable="0" parent="at4TgTFT5-a5In5rYcma-55">
          <mxGeometry x="0.2337" y="2" relative="1" as="geometry">
            <mxPoint x="-19" y="-7" as="offset" />
          </mxGeometry>
        </mxCell>
        <mxCell id="at4TgTFT5-a5In5rYcma-57" style="edgeStyle=orthogonalEdgeStyle;rounded=0;orthogonalLoop=1;jettySize=auto;html=1;entryX=0;entryY=0.5;entryDx=0;entryDy=0;fillColor=#f8cecc;strokeColor=#B85450;" edge="1" parent="1">
          <mxGeometry relative="1" as="geometry">
            <mxPoint x="1100" y="790" as="sourcePoint" />
            <mxPoint x="1230" y="790" as="targetPoint" />
          </mxGeometry>
        </mxCell>
        <mxCell id="at4TgTFT5-a5In5rYcma-58" value="inst" style="edgeLabel;html=1;align=center;verticalAlign=middle;resizable=0;points=[];fontColor=#B85450;labelBackgroundColor=none;" vertex="1" connectable="0" parent="at4TgTFT5-a5In5rYcma-57">
          <mxGeometry x="-0.0157" y="-2" relative="1" as="geometry">
            <mxPoint x="-3" y="-10" as="offset" />
          </mxGeometry>
        </mxCell>
        <mxCell id="at4TgTFT5-a5In5rYcma-59" style="edgeStyle=orthogonalEdgeStyle;rounded=0;orthogonalLoop=1;jettySize=auto;html=1;entryX=0;entryY=0.5;entryDx=0;entryDy=0;fillColor=#f8cecc;strokeColor=#b85450;" edge="1" parent="1">
          <mxGeometry relative="1" as="geometry">
            <mxPoint x="1100" y="811" as="sourcePoint" />
            <mxPoint x="1230" y="811" as="targetPoint" />
          </mxGeometry>
        </mxCell>
        <mxCell id="at4TgTFT5-a5In5rYcma-60" value="inst_addr" style="edgeLabel;html=1;align=center;verticalAlign=middle;resizable=0;points=[];fontColor=#B85450;labelBackgroundColor=none;" vertex="1" connectable="0" parent="at4TgTFT5-a5In5rYcma-59">
          <mxGeometry x="-0.0157" y="-2" relative="1" as="geometry">
            <mxPoint x="-3" y="-10" as="offset" />
          </mxGeometry>
        </mxCell>
        <mxCell id="at4TgTFT5-a5In5rYcma-61" style="edgeStyle=orthogonalEdgeStyle;rounded=0;orthogonalLoop=1;jettySize=auto;html=1;entryX=0;entryY=0.5;entryDx=0;entryDy=0;" edge="1" parent="1">
          <mxGeometry relative="1" as="geometry">
            <mxPoint x="1100" y="840" as="sourcePoint" />
            <mxPoint x="1230" y="840" as="targetPoint" />
          </mxGeometry>
        </mxCell>
        <mxCell id="at4TgTFT5-a5In5rYcma-62" value="reg_wen" style="edgeLabel;html=1;align=center;verticalAlign=middle;resizable=0;points=[];labelBackgroundColor=none;" vertex="1" connectable="0" parent="at4TgTFT5-a5In5rYcma-61">
          <mxGeometry x="-0.0157" y="-2" relative="1" as="geometry">
            <mxPoint x="-3" y="-10" as="offset" />
          </mxGeometry>
        </mxCell>
        <mxCell id="at4TgTFT5-a5In5rYcma-63" style="edgeStyle=orthogonalEdgeStyle;rounded=0;orthogonalLoop=1;jettySize=auto;html=1;entryX=0;entryY=0.5;entryDx=0;entryDy=0;" edge="1" parent="1">
          <mxGeometry relative="1" as="geometry">
            <mxPoint x="1100" y="860" as="sourcePoint" />
            <mxPoint x="1230" y="860" as="targetPoint" />
          </mxGeometry>
        </mxCell>
        <mxCell id="at4TgTFT5-a5In5rYcma-64" value="reg_waddr" style="edgeLabel;html=1;align=center;verticalAlign=middle;resizable=0;points=[];labelBackgroundColor=none;" vertex="1" connectable="0" parent="at4TgTFT5-a5In5rYcma-63">
          <mxGeometry x="-0.0157" y="-2" relative="1" as="geometry">
            <mxPoint x="-3" y="-10" as="offset" />
          </mxGeometry>
        </mxCell>
        <mxCell id="at4TgTFT5-a5In5rYcma-65" style="edgeStyle=orthogonalEdgeStyle;rounded=0;orthogonalLoop=1;jettySize=auto;html=1;entryX=0;entryY=0.5;entryDx=0;entryDy=0;" edge="1" parent="1">
          <mxGeometry relative="1" as="geometry">
            <mxPoint x="1100" y="880" as="sourcePoint" />
            <mxPoint x="1230" y="880" as="targetPoint" />
          </mxGeometry>
        </mxCell>
        <mxCell id="at4TgTFT5-a5In5rYcma-66" value="csr_wen" style="edgeLabel;html=1;align=center;verticalAlign=middle;resizable=0;points=[];labelBackgroundColor=none;" vertex="1" connectable="0" parent="at4TgTFT5-a5In5rYcma-65">
          <mxGeometry x="-0.0157" y="-2" relative="1" as="geometry">
            <mxPoint x="-3" y="-10" as="offset" />
          </mxGeometry>
        </mxCell>
        <mxCell id="at4TgTFT5-a5In5rYcma-67" style="edgeStyle=orthogonalEdgeStyle;rounded=0;orthogonalLoop=1;jettySize=auto;html=1;entryX=0;entryY=0.5;entryDx=0;entryDy=0;" edge="1" parent="1">
          <mxGeometry relative="1" as="geometry">
            <mxPoint x="1100" y="900" as="sourcePoint" />
            <mxPoint x="1230" y="900" as="targetPoint" />
          </mxGeometry>
        </mxCell>
        <mxCell id="at4TgTFT5-a5In5rYcma-68" value="csr_waddr" style="edgeLabel;html=1;align=center;verticalAlign=middle;resizable=0;points=[];labelBackgroundColor=none;" vertex="1" connectable="0" parent="at4TgTFT5-a5In5rYcma-67">
          <mxGeometry x="-0.0157" y="-2" relative="1" as="geometry">
            <mxPoint x="-3" y="-10" as="offset" />
          </mxGeometry>
        </mxCell>
        <mxCell id="at4TgTFT5-a5In5rYcma-73" style="edgeStyle=orthogonalEdgeStyle;rounded=0;orthogonalLoop=1;jettySize=auto;html=1;entryX=0;entryY=0.5;entryDx=0;entryDy=0;" edge="1" parent="1">
          <mxGeometry relative="1" as="geometry">
            <mxPoint x="1100" y="920" as="sourcePoint" />
            <mxPoint x="1230" y="920" as="targetPoint" />
          </mxGeometry>
        </mxCell>
        <mxCell id="at4TgTFT5-a5In5rYcma-74" value="csr_wdata" style="edgeLabel;html=1;align=center;verticalAlign=middle;resizable=0;points=[];labelBackgroundColor=none;" vertex="1" connectable="0" parent="at4TgTFT5-a5In5rYcma-73">
          <mxGeometry x="-0.0157" y="-2" relative="1" as="geometry">
            <mxPoint x="-3" y="-10" as="offset" />
          </mxGeometry>
        </mxCell>
        <mxCell id="at4TgTFT5-a5In5rYcma-96" style="edgeStyle=orthogonalEdgeStyle;rounded=0;orthogonalLoop=1;jettySize=auto;html=1;exitX=1;exitY=0.75;exitDx=0;exitDy=0;" edge="1" parent="1" source="at4TgTFT5-a5In5rYcma-98" target="at4TgTFT5-a5In5rYcma-153">
          <mxGeometry relative="1" as="geometry">
            <Array as="points">
              <mxPoint x="2050" y="877" />
              <mxPoint x="2050" y="200" />
              <mxPoint x="510" y="200" />
            </Array>
          </mxGeometry>
        </mxCell>
        <mxCell id="at4TgTFT5-a5In5rYcma-97" value="jump_flag" style="edgeLabel;html=1;align=center;verticalAlign=middle;resizable=0;points=[];" vertex="1" connectable="0" parent="at4TgTFT5-a5In5rYcma-96">
          <mxGeometry x="-0.0666" y="1" relative="1" as="geometry">
            <mxPoint x="-261" y="-1" as="offset" />
          </mxGeometry>
        </mxCell>
        <mxCell id="at4TgTFT5-a5In5rYcma-122" style="edgeStyle=orthogonalEdgeStyle;rounded=0;orthogonalLoop=1;jettySize=auto;html=1;entryX=0.314;entryY=1.002;entryDx=0;entryDy=0;endArrow=none;endFill=0;startArrow=classic;startFill=1;entryPerimeter=0;exitX=0.779;exitY=-0.011;exitDx=0;exitDy=0;exitPerimeter=0;" edge="1" parent="1" source="hIqT9i04S8oYivavArrL-39" target="at4TgTFT5-a5In5rYcma-98">
          <mxGeometry relative="1" as="geometry">
            <mxPoint x="1726" y="1079" as="sourcePoint" />
            <mxPoint x="1726.5700000000002" y="940" as="targetPoint" />
          </mxGeometry>
        </mxCell>
        <mxCell id="at4TgTFT5-a5In5rYcma-123" value="mem_waddr" style="edgeLabel;html=1;align=center;verticalAlign=middle;resizable=0;points=[];labelBackgroundColor=none;horizontal=0;" vertex="1" connectable="0" parent="at4TgTFT5-a5In5rYcma-122">
          <mxGeometry x="-0.0778" y="-1" relative="1" as="geometry">
            <mxPoint x="-11" y="-31" as="offset" />
          </mxGeometry>
        </mxCell>
        <mxCell id="at4TgTFT5-a5In5rYcma-125" style="edgeStyle=orthogonalEdgeStyle;rounded=0;orthogonalLoop=1;jettySize=auto;html=1;exitX=0.761;exitY=-0.009;exitDx=0;exitDy=0;startArrow=classic;startFill=1;endArrow=none;endFill=0;exitPerimeter=0;" edge="1" parent="1" source="hIqT9i04S8oYivavArrL-39">
          <mxGeometry relative="1" as="geometry">
            <mxPoint x="1693.9260000000002" y="1071.1399999999999" as="sourcePoint" />
            <mxPoint x="1694" y="930" as="targetPoint" />
          </mxGeometry>
        </mxCell>
        <mxCell id="at4TgTFT5-a5In5rYcma-126" value="mem_wen" style="edgeLabel;html=1;align=center;verticalAlign=middle;resizable=0;points=[];labelBackgroundColor=none;horizontal=0;" vertex="1" connectable="0" parent="at4TgTFT5-a5In5rYcma-125">
          <mxGeometry x="-0.0778" y="-1" relative="1" as="geometry">
            <mxPoint x="-11" y="-32" as="offset" />
          </mxGeometry>
        </mxCell>
        <mxCell id="at4TgTFT5-a5In5rYcma-133" style="edgeStyle=orthogonalEdgeStyle;rounded=0;orthogonalLoop=1;jettySize=auto;html=1;exitX=0.108;exitY=0.003;exitDx=0;exitDy=0;entryX=1;entryY=0.75;entryDx=0;entryDy=0;exitPerimeter=0;" edge="1" parent="1" source="at4TgTFT5-a5In5rYcma-98" target="at4TgTFT5-a5In5rYcma-201">
          <mxGeometry relative="1" as="geometry">
            <mxPoint x="1460" y="560" as="sourcePoint" />
            <mxPoint x="1460" y="480" as="targetPoint" />
            <Array as="points">
              <mxPoint x="1689" y="462" />
            </Array>
          </mxGeometry>
        </mxCell>
        <mxCell id="at4TgTFT5-a5In5rYcma-135" style="edgeStyle=orthogonalEdgeStyle;rounded=0;orthogonalLoop=1;jettySize=auto;html=1;exitX=0.274;exitY=0.002;exitDx=0;exitDy=0;entryX=1;entryY=0.5;entryDx=0;entryDy=0;exitPerimeter=0;" edge="1" parent="1" source="at4TgTFT5-a5In5rYcma-98" target="at4TgTFT5-a5In5rYcma-201">
          <mxGeometry relative="1" as="geometry">
            <mxPoint x="1488.9999999999998" y="560" as="sourcePoint" />
            <mxPoint x="1488.9999999999998" y="480" as="targetPoint" />
            <Array as="points">
              <mxPoint x="1719" y="445" />
            </Array>
          </mxGeometry>
        </mxCell>
        <mxCell id="at4TgTFT5-a5In5rYcma-136" value="reg_waddr" style="edgeLabel;html=1;align=center;verticalAlign=middle;resizable=0;points=[];" vertex="1" connectable="0" parent="at4TgTFT5-a5In5rYcma-135">
          <mxGeometry x="-0.0778" y="-1" relative="1" as="geometry">
            <mxPoint x="-52" y="2" as="offset" />
          </mxGeometry>
        </mxCell>
        <mxCell id="at4TgTFT5-a5In5rYcma-137" style="edgeStyle=orthogonalEdgeStyle;rounded=0;orthogonalLoop=1;jettySize=auto;html=1;exitX=0.444;exitY=-0.003;exitDx=0;exitDy=0;entryX=1;entryY=0.25;entryDx=0;entryDy=0;exitPerimeter=0;" edge="1" parent="1" source="at4TgTFT5-a5In5rYcma-98" target="at4TgTFT5-a5In5rYcma-201">
          <mxGeometry relative="1" as="geometry">
            <mxPoint x="1519.9999999999998" y="560" as="sourcePoint" />
            <mxPoint x="1519.9999999999998" y="480" as="targetPoint" />
          </mxGeometry>
        </mxCell>
        <mxCell id="at4TgTFT5-a5In5rYcma-138" value="reg_wdata" style="edgeLabel;html=1;align=center;verticalAlign=middle;resizable=0;points=[];" vertex="1" connectable="0" parent="at4TgTFT5-a5In5rYcma-137">
          <mxGeometry x="-0.0778" y="-1" relative="1" as="geometry">
            <mxPoint x="-78" y="34" as="offset" />
          </mxGeometry>
        </mxCell>
        <mxCell id="at4TgTFT5-a5In5rYcma-209" value="reg_wen" style="edgeLabel;html=1;align=center;verticalAlign=middle;resizable=0;points=[];" vertex="1" connectable="0" parent="at4TgTFT5-a5In5rYcma-137">
          <mxGeometry x="0.0678" relative="1" as="geometry">
            <mxPoint x="-12" as="offset" />
          </mxGeometry>
        </mxCell>
        <mxCell id="at4TgTFT5-a5In5rYcma-140" style="edgeStyle=orthogonalEdgeStyle;rounded=0;orthogonalLoop=1;jettySize=auto;html=1;exitX=0.821;exitY=0.006;exitDx=0;exitDy=0;entryX=0.722;entryY=1;entryDx=0;entryDy=0;endArrow=none;endFill=0;startArrow=classic;startFill=1;entryPerimeter=0;exitPerimeter=0;" edge="1" parent="1" source="hIqT9i04S8oYivavArrL-39" target="at4TgTFT5-a5In5rYcma-98">
          <mxGeometry relative="1" as="geometry">
            <mxPoint x="1800" y="1020" as="sourcePoint" />
            <mxPoint x="1800" y="940" as="targetPoint" />
          </mxGeometry>
        </mxCell>
        <mxCell id="at4TgTFT5-a5In5rYcma-141" value="mem_rdata" style="edgeLabel;html=1;align=center;verticalAlign=middle;resizable=0;points=[];horizontal=0;labelBackgroundColor=none;" vertex="1" connectable="0" parent="at4TgTFT5-a5In5rYcma-140">
          <mxGeometry x="-0.0778" y="-1" relative="1" as="geometry">
            <mxPoint x="-13" y="-30" as="offset" />
          </mxGeometry>
        </mxCell>
        <mxCell id="at4TgTFT5-a5In5rYcma-144" value="&lt;font style=&quot;font-size: 18px;&quot;&gt;&lt;b&gt;alu&lt;/b&gt;&lt;/font&gt;" style="rounded=0;whiteSpace=wrap;html=1;fillColor=#f5f5f5;fontColor=#333333;strokeColor=#666666;" vertex="1" parent="1">
          <mxGeometry x="1940" y="730" width="70" height="120" as="geometry" />
        </mxCell>
        <mxCell id="at4TgTFT5-a5In5rYcma-145" style="edgeStyle=orthogonalEdgeStyle;rounded=0;orthogonalLoop=1;jettySize=auto;html=1;exitX=1;exitY=0.25;exitDx=0;exitDy=0;entryX=0;entryY=0.437;entryDx=0;entryDy=0;entryPerimeter=0;" edge="1" parent="1">
          <mxGeometry relative="1" as="geometry">
            <mxPoint x="1850" y="750.06" as="sourcePoint" />
            <mxPoint x="1940" y="750" as="targetPoint" />
            <Array as="points">
              <mxPoint x="1895" y="749.56" />
              <mxPoint x="1895" y="749.56" />
            </Array>
          </mxGeometry>
        </mxCell>
        <mxCell id="at4TgTFT5-a5In5rYcma-146" value="alu_data1" style="edgeLabel;html=1;align=center;verticalAlign=middle;resizable=0;points=[];labelBackgroundColor=none;" vertex="1" connectable="0" parent="at4TgTFT5-a5In5rYcma-145">
          <mxGeometry x="0.0841" relative="1" as="geometry">
            <mxPoint x="-2" y="-8" as="offset" />
          </mxGeometry>
        </mxCell>
        <mxCell id="at4TgTFT5-a5In5rYcma-147" style="edgeStyle=orthogonalEdgeStyle;rounded=0;orthogonalLoop=1;jettySize=auto;html=1;exitX=1;exitY=0.25;exitDx=0;exitDy=0;entryX=0;entryY=0.437;entryDx=0;entryDy=0;entryPerimeter=0;" edge="1" parent="1">
          <mxGeometry relative="1" as="geometry">
            <mxPoint x="1850" y="780.06" as="sourcePoint" />
            <mxPoint x="1940" y="780" as="targetPoint" />
            <Array as="points">
              <mxPoint x="1895" y="779.56" />
              <mxPoint x="1895" y="779.56" />
            </Array>
          </mxGeometry>
        </mxCell>
        <mxCell id="at4TgTFT5-a5In5rYcma-148" value="alu_data2" style="edgeLabel;html=1;align=center;verticalAlign=middle;resizable=0;points=[];labelBackgroundColor=none;" vertex="1" connectable="0" parent="at4TgTFT5-a5In5rYcma-147">
          <mxGeometry x="0.0841" relative="1" as="geometry">
            <mxPoint x="-2" y="-8" as="offset" />
          </mxGeometry>
        </mxCell>
        <mxCell id="at4TgTFT5-a5In5rYcma-149" style="edgeStyle=orthogonalEdgeStyle;rounded=0;orthogonalLoop=1;jettySize=auto;html=1;exitX=1;exitY=0.25;exitDx=0;exitDy=0;entryX=0;entryY=0.437;entryDx=0;entryDy=0;entryPerimeter=0;" edge="1" parent="1">
          <mxGeometry relative="1" as="geometry">
            <mxPoint x="1850" y="810.06" as="sourcePoint" />
            <mxPoint x="1940" y="810" as="targetPoint" />
            <Array as="points">
              <mxPoint x="1895" y="809.56" />
              <mxPoint x="1895" y="809.56" />
            </Array>
          </mxGeometry>
        </mxCell>
        <mxCell id="at4TgTFT5-a5In5rYcma-150" value="alu_op" style="edgeLabel;html=1;align=center;verticalAlign=middle;resizable=0;points=[];labelBackgroundColor=none;" vertex="1" connectable="0" parent="at4TgTFT5-a5In5rYcma-149">
          <mxGeometry x="0.0841" relative="1" as="geometry">
            <mxPoint x="-4" y="-8" as="offset" />
          </mxGeometry>
        </mxCell>
        <mxCell id="at4TgTFT5-a5In5rYcma-151" style="edgeStyle=orthogonalEdgeStyle;rounded=0;orthogonalLoop=1;jettySize=auto;html=1;" edge="1" parent="1">
          <mxGeometry relative="1" as="geometry">
            <mxPoint x="1940" y="837.0107526881719" as="sourcePoint" />
            <mxPoint x="1850" y="837" as="targetPoint" />
          </mxGeometry>
        </mxCell>
        <mxCell id="at4TgTFT5-a5In5rYcma-152" value="alu_data" style="edgeLabel;html=1;align=center;verticalAlign=middle;resizable=0;points=[];labelBackgroundColor=none;" vertex="1" connectable="0" parent="at4TgTFT5-a5In5rYcma-151">
          <mxGeometry x="-0.114" y="1" relative="1" as="geometry">
            <mxPoint x="-5" y="-9" as="offset" />
          </mxGeometry>
        </mxCell>
        <mxCell id="at4TgTFT5-a5In5rYcma-153" value="&lt;font style=&quot;font-size: 18px;&quot;&gt;&lt;b&gt;ctrl&lt;/b&gt;&lt;/font&gt;" style="rounded=0;whiteSpace=wrap;html=1;fillColor=#f5f5f5;fontColor=#333333;strokeColor=#666666;" vertex="1" parent="1">
          <mxGeometry x="420" y="240" width="140" height="180" as="geometry" />
        </mxCell>
        <mxCell id="at4TgTFT5-a5In5rYcma-154" style="edgeStyle=orthogonalEdgeStyle;rounded=0;orthogonalLoop=1;jettySize=auto;html=1;exitX=1;exitY=0.75;exitDx=0;exitDy=0;" edge="1" parent="1" target="at4TgTFT5-a5In5rYcma-153">
          <mxGeometry relative="1" as="geometry">
            <mxPoint x="1850" y="905" as="sourcePoint" />
            <mxPoint x="455" y="225" as="targetPoint" />
            <Array as="points">
              <mxPoint x="1850" y="906" />
              <mxPoint x="2080" y="906" />
              <mxPoint x="2080" y="160" />
              <mxPoint x="470" y="160" />
            </Array>
          </mxGeometry>
        </mxCell>
        <mxCell id="at4TgTFT5-a5In5rYcma-155" value="jump_addr" style="edgeLabel;html=1;align=center;verticalAlign=middle;resizable=0;points=[];" vertex="1" connectable="0" parent="at4TgTFT5-a5In5rYcma-154">
          <mxGeometry x="-0.0666" y="1" relative="1" as="geometry">
            <mxPoint x="-293" y="-1" as="offset" />
          </mxGeometry>
        </mxCell>
        <mxCell id="at4TgTFT5-a5In5rYcma-200" value="" style="group" vertex="1" connectable="0" parent="1">
          <mxGeometry x="1410" y="732" width="260" height="188" as="geometry" />
        </mxCell>
        <mxCell id="at4TgTFT5-a5In5rYcma-180" style="edgeStyle=orthogonalEdgeStyle;rounded=0;orthogonalLoop=1;jettySize=auto;html=1;exitX=1;exitY=0.5;exitDx=0;exitDy=0;entryX=0;entryY=0.5;entryDx=0;entryDy=0;fillColor=#dae8fc;strokeColor=#6c8ebf;" edge="1" parent="at4TgTFT5-a5In5rYcma-200">
          <mxGeometry relative="1" as="geometry">
            <mxPoint as="sourcePoint" />
            <mxPoint x="260" as="targetPoint" />
          </mxGeometry>
        </mxCell>
        <mxCell id="at4TgTFT5-a5In5rYcma-181" value="&lt;font color=&quot;#6c8ebf&quot;&gt;op1&lt;/font&gt;" style="edgeLabel;html=1;align=center;verticalAlign=middle;resizable=0;points=[];labelBackgroundColor=none;" vertex="1" connectable="0" parent="at4TgTFT5-a5In5rYcma-180">
          <mxGeometry x="0.2337" y="2" relative="1" as="geometry">
            <mxPoint x="-19" y="-7" as="offset" />
          </mxGeometry>
        </mxCell>
        <mxCell id="at4TgTFT5-a5In5rYcma-182" style="edgeStyle=orthogonalEdgeStyle;rounded=0;orthogonalLoop=1;jettySize=auto;html=1;entryX=0;entryY=0.5;entryDx=0;entryDy=0;" edge="1" parent="at4TgTFT5-a5In5rYcma-200">
          <mxGeometry relative="1" as="geometry">
            <mxPoint y="38" as="sourcePoint" />
            <mxPoint x="260" y="38" as="targetPoint" />
          </mxGeometry>
        </mxCell>
        <mxCell id="at4TgTFT5-a5In5rYcma-183" value="offset" style="edgeLabel;html=1;align=center;verticalAlign=middle;resizable=0;points=[];labelBackgroundColor=none;" vertex="1" connectable="0" parent="at4TgTFT5-a5In5rYcma-182">
          <mxGeometry x="-0.0157" y="-2" relative="1" as="geometry">
            <mxPoint x="-3" y="-10" as="offset" />
          </mxGeometry>
        </mxCell>
        <mxCell id="at4TgTFT5-a5In5rYcma-184" style="edgeStyle=orthogonalEdgeStyle;rounded=0;orthogonalLoop=1;jettySize=auto;html=1;exitX=1;exitY=0.5;exitDx=0;exitDy=0;entryX=0;entryY=0.5;entryDx=0;entryDy=0;fillColor=#d5e8d4;strokeColor=#82b366;" edge="1" parent="at4TgTFT5-a5In5rYcma-200">
          <mxGeometry relative="1" as="geometry">
            <mxPoint y="18" as="sourcePoint" />
            <mxPoint x="260" y="18" as="targetPoint" />
          </mxGeometry>
        </mxCell>
        <mxCell id="at4TgTFT5-a5In5rYcma-185" value="&lt;font color=&quot;#82b366&quot;&gt;op2&lt;/font&gt;" style="edgeLabel;html=1;align=center;verticalAlign=middle;resizable=0;points=[];labelBackgroundColor=none;" vertex="1" connectable="0" parent="at4TgTFT5-a5In5rYcma-184">
          <mxGeometry x="0.2337" y="2" relative="1" as="geometry">
            <mxPoint x="-19" y="-7" as="offset" />
          </mxGeometry>
        </mxCell>
        <mxCell id="at4TgTFT5-a5In5rYcma-186" style="edgeStyle=orthogonalEdgeStyle;rounded=0;orthogonalLoop=1;jettySize=auto;html=1;entryX=0;entryY=0.5;entryDx=0;entryDy=0;fillColor=#f8cecc;strokeColor=#B85450;" edge="1" parent="at4TgTFT5-a5In5rYcma-200">
          <mxGeometry relative="1" as="geometry">
            <mxPoint y="58" as="sourcePoint" />
            <mxPoint x="260" y="58" as="targetPoint" />
          </mxGeometry>
        </mxCell>
        <mxCell id="at4TgTFT5-a5In5rYcma-187" value="inst" style="edgeLabel;html=1;align=center;verticalAlign=middle;resizable=0;points=[];fontColor=#B85450;labelBackgroundColor=none;" vertex="1" connectable="0" parent="at4TgTFT5-a5In5rYcma-186">
          <mxGeometry x="-0.0157" y="-2" relative="1" as="geometry">
            <mxPoint x="-3" y="-10" as="offset" />
          </mxGeometry>
        </mxCell>
        <mxCell id="at4TgTFT5-a5In5rYcma-188" style="edgeStyle=orthogonalEdgeStyle;rounded=0;orthogonalLoop=1;jettySize=auto;html=1;entryX=0;entryY=0.5;entryDx=0;entryDy=0;fillColor=#f8cecc;strokeColor=#b85450;" edge="1" parent="at4TgTFT5-a5In5rYcma-200">
          <mxGeometry relative="1" as="geometry">
            <mxPoint y="79" as="sourcePoint" />
            <mxPoint x="260" y="79" as="targetPoint" />
          </mxGeometry>
        </mxCell>
        <mxCell id="at4TgTFT5-a5In5rYcma-189" value="inst_addr" style="edgeLabel;html=1;align=center;verticalAlign=middle;resizable=0;points=[];fontColor=#B85450;labelBackgroundColor=none;" vertex="1" connectable="0" parent="at4TgTFT5-a5In5rYcma-188">
          <mxGeometry x="-0.0157" y="-2" relative="1" as="geometry">
            <mxPoint x="-3" y="-10" as="offset" />
          </mxGeometry>
        </mxCell>
        <mxCell id="at4TgTFT5-a5In5rYcma-190" style="edgeStyle=orthogonalEdgeStyle;rounded=0;orthogonalLoop=1;jettySize=auto;html=1;entryX=0;entryY=0.5;entryDx=0;entryDy=0;" edge="1" parent="at4TgTFT5-a5In5rYcma-200">
          <mxGeometry relative="1" as="geometry">
            <mxPoint y="108" as="sourcePoint" />
            <mxPoint x="260" y="108" as="targetPoint" />
          </mxGeometry>
        </mxCell>
        <mxCell id="at4TgTFT5-a5In5rYcma-191" value="reg_wen" style="edgeLabel;html=1;align=center;verticalAlign=middle;resizable=0;points=[];labelBackgroundColor=none;" vertex="1" connectable="0" parent="at4TgTFT5-a5In5rYcma-190">
          <mxGeometry x="-0.0157" y="-2" relative="1" as="geometry">
            <mxPoint x="-3" y="-10" as="offset" />
          </mxGeometry>
        </mxCell>
        <mxCell id="at4TgTFT5-a5In5rYcma-192" style="edgeStyle=orthogonalEdgeStyle;rounded=0;orthogonalLoop=1;jettySize=auto;html=1;entryX=0;entryY=0.5;entryDx=0;entryDy=0;" edge="1" parent="at4TgTFT5-a5In5rYcma-200">
          <mxGeometry relative="1" as="geometry">
            <mxPoint y="128" as="sourcePoint" />
            <mxPoint x="260" y="128" as="targetPoint" />
          </mxGeometry>
        </mxCell>
        <mxCell id="at4TgTFT5-a5In5rYcma-193" value="reg_waddr" style="edgeLabel;html=1;align=center;verticalAlign=middle;resizable=0;points=[];labelBackgroundColor=none;" vertex="1" connectable="0" parent="at4TgTFT5-a5In5rYcma-192">
          <mxGeometry x="-0.0157" y="-2" relative="1" as="geometry">
            <mxPoint x="-3" y="-10" as="offset" />
          </mxGeometry>
        </mxCell>
        <mxCell id="at4TgTFT5-a5In5rYcma-194" style="edgeStyle=orthogonalEdgeStyle;rounded=0;orthogonalLoop=1;jettySize=auto;html=1;entryX=0;entryY=0.5;entryDx=0;entryDy=0;" edge="1" parent="at4TgTFT5-a5In5rYcma-200">
          <mxGeometry relative="1" as="geometry">
            <mxPoint y="148" as="sourcePoint" />
            <mxPoint x="260" y="148" as="targetPoint" />
          </mxGeometry>
        </mxCell>
        <mxCell id="at4TgTFT5-a5In5rYcma-195" value="csr_wen" style="edgeLabel;html=1;align=center;verticalAlign=middle;resizable=0;points=[];labelBackgroundColor=none;" vertex="1" connectable="0" parent="at4TgTFT5-a5In5rYcma-194">
          <mxGeometry x="-0.0157" y="-2" relative="1" as="geometry">
            <mxPoint x="-3" y="-10" as="offset" />
          </mxGeometry>
        </mxCell>
        <mxCell id="at4TgTFT5-a5In5rYcma-196" style="edgeStyle=orthogonalEdgeStyle;rounded=0;orthogonalLoop=1;jettySize=auto;html=1;entryX=0;entryY=0.5;entryDx=0;entryDy=0;" edge="1" parent="at4TgTFT5-a5In5rYcma-200">
          <mxGeometry relative="1" as="geometry">
            <mxPoint y="168" as="sourcePoint" />
            <mxPoint x="260" y="168" as="targetPoint" />
          </mxGeometry>
        </mxCell>
        <mxCell id="at4TgTFT5-a5In5rYcma-197" value="csr_waddr" style="edgeLabel;html=1;align=center;verticalAlign=middle;resizable=0;points=[];labelBackgroundColor=none;" vertex="1" connectable="0" parent="at4TgTFT5-a5In5rYcma-196">
          <mxGeometry x="-0.0157" y="-2" relative="1" as="geometry">
            <mxPoint x="-3" y="-10" as="offset" />
          </mxGeometry>
        </mxCell>
        <mxCell id="at4TgTFT5-a5In5rYcma-198" style="edgeStyle=orthogonalEdgeStyle;rounded=0;orthogonalLoop=1;jettySize=auto;html=1;entryX=0;entryY=0.5;entryDx=0;entryDy=0;" edge="1" parent="at4TgTFT5-a5In5rYcma-200">
          <mxGeometry relative="1" as="geometry">
            <mxPoint y="188" as="sourcePoint" />
            <mxPoint x="260" y="188" as="targetPoint" />
          </mxGeometry>
        </mxCell>
        <mxCell id="at4TgTFT5-a5In5rYcma-199" value="csr_wdata" style="edgeLabel;html=1;align=center;verticalAlign=middle;resizable=0;points=[];labelBackgroundColor=none;" vertex="1" connectable="0" parent="at4TgTFT5-a5In5rYcma-198">
          <mxGeometry x="-0.0157" y="-2" relative="1" as="geometry">
            <mxPoint x="-3" y="-10" as="offset" />
          </mxGeometry>
        </mxCell>
        <mxCell id="at4TgTFT5-a5In5rYcma-201" value="&lt;font style=&quot;font-size: 18px;&quot;&gt;&lt;b&gt;gp_reg&lt;/b&gt;&lt;/font&gt;" style="rounded=0;whiteSpace=wrap;html=1;fillColor=#f5f5f5;fontColor=#333333;strokeColor=#666666;" vertex="1" parent="1">
          <mxGeometry x="1020" y="410" width="80" height="70" as="geometry" />
        </mxCell>
        <mxCell id="at4TgTFT5-a5In5rYcma-131" style="edgeStyle=orthogonalEdgeStyle;rounded=0;orthogonalLoop=1;jettySize=auto;html=1;entryX=0.25;entryY=0;entryDx=0;entryDy=0;" edge="1" parent="1" source="at4TgTFT5-a5In5rYcma-98" target="at4TgTFT5-a5In5rYcma-50">
          <mxGeometry relative="1" as="geometry">
            <mxPoint x="1739" y="720" as="sourcePoint" />
            <mxPoint x="1739" y="640" as="targetPoint" />
            <Array as="points">
              <mxPoint x="1820" y="300" />
              <mxPoint x="940" y="300" />
            </Array>
          </mxGeometry>
        </mxCell>
        <mxCell id="at4TgTFT5-a5In5rYcma-132" value="csr_wdata" style="edgeLabel;html=1;align=center;verticalAlign=middle;resizable=0;points=[];" vertex="1" connectable="0" parent="at4TgTFT5-a5In5rYcma-131">
          <mxGeometry x="-0.0778" y="-1" relative="1" as="geometry">
            <mxPoint x="-70" y="1" as="offset" />
          </mxGeometry>
        </mxCell>
        <mxCell id="at4TgTFT5-a5In5rYcma-129" style="edgeStyle=orthogonalEdgeStyle;rounded=0;orthogonalLoop=1;jettySize=auto;html=1;entryX=0.5;entryY=0;entryDx=0;entryDy=0;" edge="1" parent="1" source="at4TgTFT5-a5In5rYcma-98" target="at4TgTFT5-a5In5rYcma-50">
          <mxGeometry relative="1" as="geometry">
            <mxPoint x="1708" y="720" as="sourcePoint" />
            <mxPoint x="1708" y="640" as="targetPoint" />
            <Array as="points">
              <mxPoint x="1800" y="330" />
              <mxPoint x="960" y="330" />
            </Array>
          </mxGeometry>
        </mxCell>
        <mxCell id="at4TgTFT5-a5In5rYcma-130" value="csr_waddr" style="edgeLabel;html=1;align=center;verticalAlign=middle;resizable=0;points=[];" vertex="1" connectable="0" parent="at4TgTFT5-a5In5rYcma-129">
          <mxGeometry x="-0.0778" y="-1" relative="1" as="geometry">
            <mxPoint x="-66" y="2" as="offset" />
          </mxGeometry>
        </mxCell>
        <mxCell id="at4TgTFT5-a5In5rYcma-120" style="edgeStyle=orthogonalEdgeStyle;rounded=0;orthogonalLoop=1;jettySize=auto;html=1;entryX=0.75;entryY=0;entryDx=0;entryDy=0;" edge="1" parent="1" source="at4TgTFT5-a5In5rYcma-98" target="at4TgTFT5-a5In5rYcma-50">
          <mxGeometry relative="1" as="geometry">
            <mxPoint x="1679" y="720" as="sourcePoint" />
            <mxPoint x="1510" y="550" as="targetPoint" />
            <Array as="points">
              <mxPoint x="1780" y="370" />
              <mxPoint x="980" y="370" />
            </Array>
          </mxGeometry>
        </mxCell>
        <mxCell id="at4TgTFT5-a5In5rYcma-121" value="csr_wen" style="edgeLabel;html=1;align=center;verticalAlign=middle;resizable=0;points=[];" vertex="1" connectable="0" parent="at4TgTFT5-a5In5rYcma-120">
          <mxGeometry x="-0.0778" y="-1" relative="1" as="geometry">
            <mxPoint x="-61" y="1" as="offset" />
          </mxGeometry>
        </mxCell>
        <mxCell id="at4TgTFT5-a5In5rYcma-202" style="edgeStyle=orthogonalEdgeStyle;rounded=0;orthogonalLoop=1;jettySize=auto;html=1;exitX=0.113;exitY=1.012;exitDx=0;exitDy=0;entryX=0.604;entryY=0.004;entryDx=0;entryDy=0;fillColor=#d5e8d4;strokeColor=#82b366;fontColor=#6C8EBF;startArrow=classic;startFill=1;endArrow=none;endFill=0;entryPerimeter=0;exitPerimeter=0;" edge="1" parent="1">
          <mxGeometry relative="1" as="geometry">
            <mxPoint x="1070" y="480" as="sourcePoint" />
            <mxPoint x="1070" y="720" as="targetPoint" />
          </mxGeometry>
        </mxCell>
        <mxCell id="at4TgTFT5-a5In5rYcma-203" value="&lt;font&gt;reg1_raddr&lt;/font&gt;" style="edgeLabel;html=1;align=center;verticalAlign=middle;resizable=0;points=[];fontColor=#82B366;horizontal=0;" vertex="1" connectable="0" parent="at4TgTFT5-a5In5rYcma-202">
          <mxGeometry x="-0.0605" y="1" relative="1" as="geometry">
            <mxPoint x="-11" y="-23" as="offset" />
          </mxGeometry>
        </mxCell>
        <mxCell id="at4TgTFT5-a5In5rYcma-206" style="edgeStyle=orthogonalEdgeStyle;rounded=0;orthogonalLoop=1;jettySize=auto;html=1;exitX=0.712;exitY=-0.004;exitDx=0;exitDy=0;entryX=0.357;entryY=1.004;entryDx=0;entryDy=0;fillColor=#d5e8d4;strokeColor=#82b366;startArrow=classic;startFill=1;endArrow=none;endFill=0;entryPerimeter=0;exitPerimeter=0;" edge="1" parent="1">
          <mxGeometry relative="1" as="geometry">
            <mxPoint x="1090" y="720" as="sourcePoint" />
            <mxPoint x="1091" y="481" as="targetPoint" />
          </mxGeometry>
        </mxCell>
        <mxCell id="at4TgTFT5-a5In5rYcma-207" value="&lt;font color=&quot;#82b366&quot;&gt;reg1_rdata&lt;/font&gt;" style="edgeLabel;html=1;align=center;verticalAlign=middle;resizable=0;points=[];horizontal=0;" vertex="1" connectable="0" parent="at4TgTFT5-a5In5rYcma-206">
          <mxGeometry x="-0.0685" y="1" relative="1" as="geometry">
            <mxPoint x="-9" y="-38" as="offset" />
          </mxGeometry>
        </mxCell>
        <mxCell id="hIqT9i04S8oYivavArrL-13" value="" style="rounded=0;whiteSpace=wrap;html=1;fillColor=#fff2cc;strokeColor=#d6b656;" parent="1" vertex="1">
          <mxGeometry x="350" y="600" width="430" height="450" as="geometry" />
        </mxCell>
        <mxCell id="hIqT9i04S8oYivavArrL-17" value="1st Pipeline" style="text;html=1;align=center;verticalAlign=middle;whiteSpace=wrap;rounded=0;" parent="1" vertex="1">
          <mxGeometry x="347" y="600" width="80" height="33.128834355828225" as="geometry" />
        </mxCell>
        <mxCell id="at4TgTFT5-a5In5rYcma-1" style="edgeStyle=orthogonalEdgeStyle;rounded=0;orthogonalLoop=1;jettySize=auto;html=1;exitX=0.5;exitY=1;exitDx=0;exitDy=0;" edge="1" parent="1" source="at4TgTFT5-a5In5rYcma-3" target="hIqT9i04S8oYivavArrL-39">
          <mxGeometry relative="1" as="geometry">
            <mxPoint x="458" y="1080" as="targetPoint" />
            <mxPoint x="458" y="940" as="sourcePoint" />
            <Array as="points">
              <mxPoint x="474" y="1010" />
              <mxPoint x="474" y="1010" />
            </Array>
          </mxGeometry>
        </mxCell>
        <mxCell id="at4TgTFT5-a5In5rYcma-2" value="pc_addr" style="edgeLabel;html=1;align=center;verticalAlign=middle;resizable=0;points=[];horizontal=0;labelBackgroundColor=none;" vertex="1" connectable="0" parent="at4TgTFT5-a5In5rYcma-1">
          <mxGeometry x="-0.1352" y="-1" relative="1" as="geometry">
            <mxPoint x="-10" y="-3" as="offset" />
          </mxGeometry>
        </mxCell>
        <mxCell id="at4TgTFT5-a5In5rYcma-3" value="&lt;font style=&quot;font-size: 18px;&quot;&gt;&lt;b&gt;pc_reg&lt;/b&gt;&lt;/font&gt;" style="rounded=0;whiteSpace=wrap;html=1;fillColor=#f5f5f5;fontColor=#333333;strokeColor=#666666;" vertex="1" parent="1">
          <mxGeometry x="414" y="720" width="120" height="210" as="geometry" />
        </mxCell>
        <mxCell id="at4TgTFT5-a5In5rYcma-4" value="&lt;font style=&quot;font-size: 18px;&quot;&gt;&lt;b&gt;inst_fetch&lt;/b&gt;&lt;/font&gt;" style="rounded=0;whiteSpace=wrap;html=1;fillColor=#f5f5f5;fontColor=#333333;strokeColor=#666666;" vertex="1" parent="1">
          <mxGeometry x="600" y="721.0016564417177" width="120" height="210" as="geometry" />
        </mxCell>
        <mxCell id="at4TgTFT5-a5In5rYcma-5" value="" style="endArrow=classic;html=1;rounded=0;entryX=0.25;entryY=0;entryDx=0;entryDy=0;exitX=0.172;exitY=0.994;exitDx=0;exitDy=0;exitPerimeter=0;" edge="1" parent="1">
          <mxGeometry width="50" height="50" relative="1" as="geometry">
            <mxPoint x="448.0799999999999" y="419.9200000000001" as="sourcePoint" />
            <mxPoint x="448" y="721" as="targetPoint" />
          </mxGeometry>
        </mxCell>
        <mxCell id="at4TgTFT5-a5In5rYcma-6" value="&lt;span style=&quot;background-color: rgb(251, 251, 251);&quot;&gt;&lt;font style=&quot;font-size: 11px;&quot;&gt;hold_flag&lt;/font&gt;&lt;/span&gt;" style="edgeLabel;html=1;align=center;verticalAlign=middle;resizable=0;points=[];horizontal=0;" vertex="1" connectable="0" parent="at4TgTFT5-a5In5rYcma-5">
          <mxGeometry x="-0.4909" y="1" relative="1" as="geometry">
            <mxPoint x="-13" y="37" as="offset" />
          </mxGeometry>
        </mxCell>
        <mxCell id="at4TgTFT5-a5In5rYcma-8" value="" style="endArrow=classic;html=1;rounded=0;entryX=0;entryY=0.25;entryDx=0;entryDy=0;exitX=0;exitY=0.75;exitDx=0;exitDy=0;" edge="1" parent="1" target="at4TgTFT5-a5In5rYcma-3" source="at4TgTFT5-a5In5rYcma-153">
          <mxGeometry width="50" height="50" relative="1" as="geometry">
            <mxPoint x="185" y="745.2760736196319" as="sourcePoint" />
            <mxPoint x="525" y="684.5398773006135" as="targetPoint" />
            <Array as="points">
              <mxPoint x="320" y="375" />
              <mxPoint x="320" y="773" />
            </Array>
          </mxGeometry>
        </mxCell>
        <mxCell id="at4TgTFT5-a5In5rYcma-9" value="jump_flag" style="edgeLabel;html=1;align=center;verticalAlign=middle;resizable=0;points=[];horizontal=0;" vertex="1" connectable="0" parent="at4TgTFT5-a5In5rYcma-8">
          <mxGeometry x="-0.2136" y="2" relative="1" as="geometry">
            <mxPoint x="-14" y="-31" as="offset" />
          </mxGeometry>
        </mxCell>
        <mxCell id="at4TgTFT5-a5In5rYcma-10" value="" style="endArrow=classic;html=1;rounded=0;entryX=0;entryY=0.75;entryDx=0;entryDy=0;exitX=0;exitY=0.25;exitDx=0;exitDy=0;" edge="1" parent="1" target="at4TgTFT5-a5In5rYcma-3" source="at4TgTFT5-a5In5rYcma-153">
          <mxGeometry width="50" height="50" relative="1" as="geometry">
            <mxPoint x="185" y="778.4049079754601" as="sourcePoint" />
            <mxPoint x="275" y="772.8834355828221" as="targetPoint" />
            <Array as="points">
              <mxPoint x="280" y="285" />
              <mxPoint x="280" y="590" />
              <mxPoint x="280" y="878" />
            </Array>
          </mxGeometry>
        </mxCell>
        <mxCell id="at4TgTFT5-a5In5rYcma-11" value="jump_addr" style="edgeLabel;html=1;align=center;verticalAlign=middle;resizable=0;points=[];horizontal=0;" vertex="1" connectable="0" parent="at4TgTFT5-a5In5rYcma-10">
          <mxGeometry x="-0.2136" y="2" relative="1" as="geometry">
            <mxPoint x="-13" y="-10" as="offset" />
          </mxGeometry>
        </mxCell>
        <mxCell id="at4TgTFT5-a5In5rYcma-24" value="" style="endArrow=classic;html=1;rounded=0;entryX=0.5;entryY=0;entryDx=0;entryDy=0;exitX=0.75;exitY=1;exitDx=0;exitDy=0;" edge="1" parent="1" source="at4TgTFT5-a5In5rYcma-153" target="at4TgTFT5-a5In5rYcma-4">
          <mxGeometry width="50" height="50" relative="1" as="geometry">
            <mxPoint x="598.67" y="460.0039877300614" as="sourcePoint" />
            <mxPoint x="598.67" y="526.2616564417178" as="targetPoint" />
            <Array as="points">
              <mxPoint x="525" y="530" />
              <mxPoint x="660" y="530" />
            </Array>
          </mxGeometry>
        </mxCell>
        <mxCell id="at4TgTFT5-a5In5rYcma-25" value="&lt;span style=&quot;background-color: rgb(251, 251, 251);&quot;&gt;&lt;font style=&quot;font-size: 11px;&quot;&gt;interrupt_flag&lt;/font&gt;&lt;/span&gt;" style="edgeLabel;html=1;align=center;verticalAlign=middle;resizable=0;points=[];" vertex="1" connectable="0" parent="at4TgTFT5-a5In5rYcma-24">
          <mxGeometry x="-0.4909" y="1" relative="1" as="geometry">
            <mxPoint x="54" y="-9" as="offset" />
          </mxGeometry>
        </mxCell>
        <mxCell id="at4TgTFT5-a5In5rYcma-26" value="" style="endArrow=classic;html=1;rounded=0;exitX=0.75;exitY=0;exitDx=0;exitDy=0;" edge="1" parent="1" source="at4TgTFT5-a5In5rYcma-4">
          <mxGeometry width="50" height="50" relative="1" as="geometry">
            <mxPoint x="575" y="662.4539877300614" as="sourcePoint" />
            <mxPoint x="560" y="360" as="targetPoint" />
            <Array as="points">
              <mxPoint x="690" y="510" />
              <mxPoint x="690" y="360" />
              <mxPoint x="610" y="360" />
            </Array>
          </mxGeometry>
        </mxCell>
        <mxCell id="at4TgTFT5-a5In5rYcma-27" value="&lt;span style=&quot;background-color: rgb(251, 251, 251);&quot;&gt;&lt;font style=&quot;font-size: 11px;&quot;&gt;interrupt_flag&lt;/font&gt;&lt;/span&gt;" style="edgeLabel;html=1;align=center;verticalAlign=middle;resizable=0;points=[];horizontal=0;" vertex="1" connectable="0" parent="at4TgTFT5-a5In5rYcma-26">
          <mxGeometry x="-0.4909" y="1" relative="1" as="geometry">
            <mxPoint x="-11" y="-51" as="offset" />
          </mxGeometry>
        </mxCell>
        <mxCell id="at4TgTFT5-a5In5rYcma-69" style="edgeStyle=orthogonalEdgeStyle;rounded=0;orthogonalLoop=1;jettySize=auto;html=1;entryX=0;entryY=0.5;entryDx=0;entryDy=0;fillColor=#f8cecc;strokeColor=#B85450;exitX=1.004;exitY=0.378;exitDx=0;exitDy=0;exitPerimeter=0;" edge="1" parent="1" source="at4TgTFT5-a5In5rYcma-4">
          <mxGeometry relative="1" as="geometry">
            <mxPoint x="790" y="800" as="sourcePoint" />
            <mxPoint x="920" y="800" as="targetPoint" />
            <Array as="points">
              <mxPoint x="815" y="800" />
              <mxPoint x="920" y="801" />
            </Array>
          </mxGeometry>
        </mxCell>
        <mxCell id="at4TgTFT5-a5In5rYcma-70" value="inst" style="edgeLabel;html=1;align=center;verticalAlign=middle;resizable=0;points=[];fontColor=#B85450;" vertex="1" connectable="0" parent="at4TgTFT5-a5In5rYcma-69">
          <mxGeometry x="-0.0157" y="-2" relative="1" as="geometry">
            <mxPoint x="-3" y="-12" as="offset" />
          </mxGeometry>
        </mxCell>
        <mxCell id="at4TgTFT5-a5In5rYcma-71" style="edgeStyle=orthogonalEdgeStyle;rounded=0;orthogonalLoop=1;jettySize=auto;html=1;entryX=0;entryY=0.5;entryDx=0;entryDy=0;fillColor=#f8cecc;strokeColor=#b85450;exitX=0.998;exitY=0.563;exitDx=0;exitDy=0;exitPerimeter=0;" edge="1" parent="1" source="at4TgTFT5-a5In5rYcma-4">
          <mxGeometry relative="1" as="geometry">
            <mxPoint x="713.7199999999999" y="840.2816564417176" as="sourcePoint" />
            <mxPoint x="920" y="840" as="targetPoint" />
            <Array as="points">
              <mxPoint x="820" y="839" />
            </Array>
          </mxGeometry>
        </mxCell>
        <mxCell id="at4TgTFT5-a5In5rYcma-72" value="inst_addr" style="edgeLabel;html=1;align=center;verticalAlign=middle;resizable=0;points=[];fontColor=#B85450;" vertex="1" connectable="0" parent="at4TgTFT5-a5In5rYcma-71">
          <mxGeometry x="-0.0157" y="-2" relative="1" as="geometry">
            <mxPoint x="-2" y="-10" as="offset" />
          </mxGeometry>
        </mxCell>
        <mxCell id="hIqT9i04S8oYivavArrL-18" value="2nd Pipeline" style="text;html=1;align=center;verticalAlign=middle;whiteSpace=wrap;rounded=0;" parent="1" vertex="1">
          <mxGeometry x="853.0461538461539" y="600" width="72.4390243902439" height="32.72727272727273" as="geometry" />
        </mxCell>
        <mxCell id="at4TgTFT5-a5In5rYcma-212" style="edgeStyle=orthogonalEdgeStyle;rounded=0;orthogonalLoop=1;jettySize=auto;html=1;entryX=0.25;entryY=1;entryDx=0;entryDy=0;fillColor=#f8cecc;strokeColor=#B85450;exitX=0.161;exitY=0.002;exitDx=0;exitDy=0;exitPerimeter=0;" edge="1" parent="1">
          <mxGeometry relative="1" as="geometry">
            <mxPoint x="624.326" y="1139.1200000000001" as="sourcePoint" />
            <mxPoint x="624" y="931.0016564417178" as="targetPoint" />
            <Array as="points" />
          </mxGeometry>
        </mxCell>
        <mxCell id="at4TgTFT5-a5In5rYcma-213" value="inst" style="edgeLabel;html=1;align=center;verticalAlign=middle;resizable=0;points=[];fontColor=#B85450;horizontal=0;labelBackgroundColor=none;" vertex="1" connectable="0" parent="at4TgTFT5-a5In5rYcma-212">
          <mxGeometry x="-0.0157" y="-2" relative="1" as="geometry">
            <mxPoint x="-13" y="-25" as="offset" />
          </mxGeometry>
        </mxCell>
        <mxCell id="at4TgTFT5-a5In5rYcma-214" style="edgeStyle=orthogonalEdgeStyle;rounded=0;orthogonalLoop=1;jettySize=auto;html=1;fillColor=#f8cecc;strokeColor=#b85450;exitX=0.187;exitY=0.017;exitDx=0;exitDy=0;exitPerimeter=0;" edge="1" parent="1">
          <mxGeometry relative="1" as="geometry">
            <mxPoint x="660.242" y="1140.02" as="sourcePoint" />
            <mxPoint x="660" y="931" as="targetPoint" />
            <Array as="points" />
          </mxGeometry>
        </mxCell>
        <mxCell id="at4TgTFT5-a5In5rYcma-215" value="inst_addr" style="edgeLabel;html=1;align=center;verticalAlign=middle;resizable=0;points=[];fontColor=#B85450;horizontal=0;labelBackgroundColor=none;" vertex="1" connectable="0" parent="at4TgTFT5-a5In5rYcma-214">
          <mxGeometry x="-0.0157" y="-2" relative="1" as="geometry">
            <mxPoint x="-12" y="-28" as="offset" />
          </mxGeometry>
        </mxCell>
        <mxCell id="at4TgTFT5-a5In5rYcma-127" style="edgeStyle=orthogonalEdgeStyle;rounded=0;orthogonalLoop=1;jettySize=auto;html=1;entryX=0.5;entryY=1;entryDx=0;entryDy=0;endArrow=none;endFill=0;startArrow=classic;startFill=1;" edge="1" parent="1" target="at4TgTFT5-a5In5rYcma-98">
          <mxGeometry relative="1" as="geometry">
            <mxPoint x="1760" y="1138" as="sourcePoint" />
            <mxPoint x="1759.7100000000003" y="940" as="targetPoint" />
          </mxGeometry>
        </mxCell>
        <mxCell id="at4TgTFT5-a5In5rYcma-128" value="mem_wdata" style="edgeLabel;html=1;align=center;verticalAlign=middle;resizable=0;points=[];labelBackgroundColor=none;horizontal=0;" vertex="1" connectable="0" parent="at4TgTFT5-a5In5rYcma-127">
          <mxGeometry x="-0.0778" y="-1" relative="1" as="geometry">
            <mxPoint x="-10" y="-30" as="offset" />
          </mxGeometry>
        </mxCell>
        <mxCell id="at4TgTFT5-a5In5rYcma-142" style="edgeStyle=orthogonalEdgeStyle;rounded=0;orthogonalLoop=1;jettySize=auto;html=1;entryX=0.913;entryY=0.998;entryDx=0;entryDy=0;endArrow=classic;endFill=1;startArrow=none;startFill=0;entryPerimeter=0;" edge="1" parent="1" target="at4TgTFT5-a5In5rYcma-98">
          <mxGeometry relative="1" as="geometry">
            <mxPoint x="1834" y="1140" as="sourcePoint" />
            <mxPoint x="1835" y="940" as="targetPoint" />
            <Array as="points">
              <mxPoint x="1835" y="1080" />
              <mxPoint x="1834" y="1080" />
            </Array>
          </mxGeometry>
        </mxCell>
        <mxCell id="at4TgTFT5-a5In5rYcma-143" value="mem_rdata" style="edgeLabel;html=1;align=center;verticalAlign=middle;resizable=0;points=[];horizontal=0;labelBackgroundColor=none;" vertex="1" connectable="0" parent="at4TgTFT5-a5In5rYcma-142">
          <mxGeometry x="-0.0778" y="-1" relative="1" as="geometry">
            <mxPoint x="-11" y="-32" as="offset" />
          </mxGeometry>
        </mxCell>
        <mxCell id="at4TgTFT5-a5In5rYcma-220" value="" style="endArrow=classic;html=1;rounded=0;entryX=0.25;entryY=0;entryDx=0;entryDy=0;" edge="1" parent="1">
          <mxGeometry width="50" height="50" relative="1" as="geometry">
            <mxPoint x="448" y="660" as="sourcePoint" />
            <mxPoint x="628" y="721.0016564417178" as="targetPoint" />
            <Array as="points">
              <mxPoint x="628" y="660" />
            </Array>
          </mxGeometry>
        </mxCell>
        <mxCell id="at4TgTFT5-a5In5rYcma-223" value="" style="endArrow=classic;html=1;rounded=0;exitX=0.994;exitY=0.125;exitDx=0;exitDy=0;exitPerimeter=0;entryX=0.5;entryY=0;entryDx=0;entryDy=0;" edge="1" parent="1" source="at4TgTFT5-a5In5rYcma-153" target="at4TgTFT5-a5In5rYcma-44">
          <mxGeometry width="50" height="50" relative="1" as="geometry">
            <mxPoint x="770" y="440" as="sourcePoint" />
            <mxPoint x="820" y="390" as="targetPoint" />
            <Array as="points">
              <mxPoint x="1320" y="260" />
            </Array>
          </mxGeometry>
        </mxCell>
        <mxCell id="at4TgTFT5-a5In5rYcma-224" value="hold_flag" style="edgeLabel;html=1;align=center;verticalAlign=middle;resizable=0;points=[];" vertex="1" connectable="0" parent="at4TgTFT5-a5In5rYcma-223">
          <mxGeometry x="-0.5636" y="2" relative="1" as="geometry">
            <mxPoint as="offset" />
          </mxGeometry>
        </mxCell>
        <mxCell id="at4TgTFT5-a5In5rYcma-226" style="edgeStyle=orthogonalEdgeStyle;rounded=0;orthogonalLoop=1;jettySize=auto;html=1;exitX=0.5;exitY=1;exitDx=0;exitDy=0;" edge="1" parent="1">
          <mxGeometry relative="1" as="geometry">
            <mxPoint x="702" y="1140" as="targetPoint" />
            <mxPoint x="702" y="931" as="sourcePoint" />
            <Array as="points">
              <mxPoint x="702" y="1011" />
              <mxPoint x="702" y="1011" />
            </Array>
          </mxGeometry>
        </mxCell>
        <mxCell id="at4TgTFT5-a5In5rYcma-227" value="pc_addr" style="edgeLabel;html=1;align=center;verticalAlign=middle;resizable=0;points=[];horizontal=0;labelBackgroundColor=none;" vertex="1" connectable="0" parent="at4TgTFT5-a5In5rYcma-226">
          <mxGeometry x="-0.1352" y="-1" relative="1" as="geometry">
            <mxPoint x="-10" y="-3" as="offset" />
          </mxGeometry>
        </mxCell>
      </root>
    </mxGraphModel>
  </diagram>
</mxfile>
